<svg width="24" height="24" viewBox="0 0 24 24" fill="none" xmlns="http://www.w3.org/2000/svg">
<circle cx="12" cy="12" r="12" fill="white"/>
<path d="M16.7143 7.28571C17.1043 7.67571 17.5714 8.57143 16.7143 9.42857L15.4286 10.621L13.379 8.57143L14.5714 7.28571C15.4286 6.42857 16.3233 6.89471 16.7143 7.28571ZM12 9.42857L7.28571 14.1429V16.7143H9.42857L14.5714 12L12 9.42857ZM24 12C24 18.617 18.617 24 12 24C5.383 24 0 18.617 0 12C0 5.383 5.383 0 12 0C18.617 0 24 5.383 24 12ZM17.621 6.379C16.451 5.209 14.549 5.209 13.379 6.379L6 13.758V18H10.242L17.621 10.621C18.791 9.451 18.791 7.549 17.621 6.379Z" fill="#024397"/>
</svg>
