<svg width="19" height="14" viewBox="0 0 19 14" fill="none" xmlns="http://www.w3.org/2000/svg">
<path d="M16.9375 1H2.0625C1.78071 1 1.51046 1.11155 1.3112 1.31012C1.11194 1.50869 1 1.77801 1 2.05882L1 11.9412C1 12.222 1.11194 12.4913 1.3112 12.6899C1.51046 12.8884 1.78071 13 2.0625 13H16.9375C17.2193 13 17.4895 12.8884 17.6888 12.6899C17.8881 12.4913 18 12.222 18 11.9412V2.05882C18 1.77801 17.8881 1.50869 17.6888 1.31012C17.4895 1.11155 17.2193 1 16.9375 1ZM16.7108 1.70588L9.5 7.26118L2.28917 1.70588H16.7108ZM1.70833 11.7965V2.15059L7.16604 6.35412L1.70833 11.7965ZM2.20771 12.2941L7.72917 6.79176L9.28042 7.98823C9.34235 8.03574 9.4183 8.06151 9.49646 8.06151C9.57461 8.06151 9.65057 8.03574 9.7125 7.98823L11.2708 6.79176L16.7923 12.2941H2.20771ZM17.2917 11.7965L11.834 6.35412L17.2917 2.15059V11.7965Z" fill="black" stroke="#F2F3F5" stroke-width="0.1"/>
</svg>
