<svg width="16" height="16" viewBox="0 0 16 16" fill="none" xmlns="http://www.w3.org/2000/svg">
<path d="M7.41375 8.35699C7.22801 8.17114 7.00748 8.02371 6.76474 7.92312C6.52201 7.82253 6.26183 7.77075 5.99908 7.77075C5.73633 7.77075 5.47615 7.82253 5.23342 7.92312C4.99068 8.02371 4.77015 8.17114 4.58441 8.35699L0.0244141 12.917C0.0860544 13.7531 0.461019 14.535 1.07433 15.1066C1.68764 15.6781 2.49409 15.9971 3.33241 15.9997H12.6657C13.3189 15.9995 13.9574 15.8063 14.5011 15.4443L7.41375 8.35699Z" fill="#024397"/>
<path d="M11.9998 5.33342C12.7362 5.33342 13.3332 4.73646 13.3332 4.00008C13.3332 3.2637 12.7362 2.66675 11.9998 2.66675C11.2635 2.66675 10.6665 3.2637 10.6665 4.00008C10.6665 4.73646 11.2635 5.33342 11.9998 5.33342Z" fill="#024397"/>
<path d="M12.6667 0H3.33333C2.4496 0.00105857 1.60237 0.352588 0.97748 0.97748C0.352588 1.60237 0.00105857 2.4496 0 3.33333L0 11.0573L3.64267 7.41467C3.95221 7.10504 4.31971 6.85944 4.72419 6.69186C5.12866 6.52429 5.56219 6.43805 6 6.43805C6.43781 6.43805 6.87134 6.52429 7.27582 6.69186C7.68029 6.85944 8.04779 7.10504 8.35733 7.41467L15.4447 14.502C15.8067 13.9583 15.9999 13.3198 16 12.6667V3.33333C15.9989 2.4496 15.6474 1.60237 15.0225 0.97748C14.3976 0.352588 13.5504 0.00105857 12.6667 0ZM12 6.66667C11.4726 6.66667 10.957 6.51027 10.5185 6.21725C10.0799 5.92424 9.73816 5.50776 9.53632 5.02049C9.33449 4.53322 9.28168 3.99704 9.38457 3.47976C9.48747 2.96248 9.74144 2.48732 10.1144 2.11438C10.4873 1.74144 10.9625 1.48747 11.4798 1.38457C11.997 1.28168 12.5332 1.33449 13.0205 1.53632C13.5078 1.73816 13.9242 2.07995 14.2173 2.51848C14.5103 2.95701 14.6667 3.47258 14.6667 4C14.6667 4.70724 14.3857 5.38552 13.8856 5.88562C13.3855 6.38572 12.7072 6.66667 12 6.66667Z" fill="#024397"/>
</svg>
