<svg width="13" height="14" viewBox="0 0 13 14" fill="none" xmlns="http://www.w3.org/2000/svg">
<path d="M4.57826 0.744842C5.14737 0.35688 5.81613 0.15 6.5 0.15C7.41696 0.15 8.29699 0.521608 8.94632 1.18408C9.59574 1.84665 9.96111 2.74592 9.96111 3.68421C9.96111 4.38387 9.75774 5.06758 9.37705 5.64887C8.99637 6.23012 8.45562 6.68268 7.82352 6.94981C7.19146 7.21692 6.49613 7.28676 5.82534 7.15063C5.15453 7.01449 4.53793 6.67839 4.05368 6.18434C3.5694 5.69026 3.23928 5.0604 3.1055 4.37426C2.97173 3.6881 3.04041 2.97691 3.30275 2.33075C3.56508 1.68461 4.00912 1.13283 4.57826 0.744842ZM5.21177 5.64614C5.59282 5.9059 6.04113 6.04474 6.5 6.04474C7.1154 6.04474 7.70497 5.79529 8.13919 5.35229C8.57331 4.90938 8.81667 4.3093 8.81667 3.68421C8.81667 3.218 8.68118 2.76203 8.427 2.37393C8.1728 1.98579 7.81119 1.68282 7.38754 1.50378C6.96385 1.32473 6.49746 1.27784 6.04747 1.36916C5.5975 1.46047 5.1846 1.68579 4.86081 2.01613C4.53705 2.34645 4.3169 2.76693 4.22774 3.22425C4.13858 3.68156 4.18431 4.15561 4.35928 4.58657C4.53426 5.01755 4.83077 5.3864 5.21177 5.64614ZM12.85 13.2632V13.85H11.7056V13.2632C11.7056 12.2472 11.31 11.2723 10.605 10.553C9.89991 9.83365 8.94293 9.42895 7.94444 9.42895H5.05556C4.05707 9.42895 3.10009 9.83365 2.39499 10.553C1.68999 11.2723 1.29444 12.2472 1.29444 13.2632V13.85H0.15V13.2632C0.15 11.934 0.667549 10.6599 1.58786 9.72097C2.50807 8.78213 3.7555 8.25526 5.05556 8.25526H7.94444C9.2445 8.25526 10.4919 8.78213 11.4121 9.72097C12.3325 10.6599 12.85 11.934 12.85 13.2632Z" fill="black" stroke="#F2F3F5" stroke-width="0.3"/>
</svg>
