<svg width="16" height="16" viewBox="0 0 16 16" fill="none" xmlns="http://www.w3.org/2000/svg">
<path d="M0 3.33333V12.6667C0.00105857 13.5504 0.352588 14.3976 0.97748 15.0225C1.60237 15.6474 2.4496 15.9989 3.33333 16H12.6667C13.5504 15.9989 14.3976 15.6474 15.0225 15.0225C15.6474 14.3976 15.9989 13.5504 16 12.6667V3.33333C15.9989 2.4496 15.6474 1.60237 15.0225 0.97748C14.3976 0.352588 13.5504 0.00105857 12.6667 0L3.33333 0C2.4496 0.00105857 1.60237 0.352588 0.97748 0.97748C0.352588 1.60237 0.00105857 2.4496 0 3.33333ZM7.06667 4.17933L10.5027 7.57067C10.5599 7.62656 10.6054 7.69333 10.6365 7.76706C10.6675 7.84079 10.6835 7.91999 10.6835 8C10.6835 8.08001 10.6675 8.15921 10.6365 8.23294C10.6054 8.30667 10.5599 8.37344 10.5027 8.42933L7.06667 11.8207C6.98082 11.9059 6.87176 11.964 6.75311 11.9877C6.63446 12.0113 6.51147 11.9995 6.39948 11.9537C6.28749 11.908 6.19147 11.8302 6.12339 11.7302C6.05531 11.6302 6.01819 11.5123 6.01667 11.3913V4.60867C6.01819 4.48769 6.05531 4.36984 6.12339 4.26982C6.19147 4.1698 6.28749 4.09205 6.39948 4.04626C6.51147 4.00047 6.63446 3.98867 6.75311 4.01233C6.87176 4.036 6.98082 4.09408 7.06667 4.17933Z" fill="#024397"/>
</svg>
